<svg width="40" height="40" viewBox="0 0 40 40" fill="none" xmlns="http://www.w3.org/2000/svg">
<rect y="-0.000244141" width="40" height="40" rx="8" fill="#DEF5F2"/>
<path d="M14.1172 27.2598H16.6761V15.564L23.4859 27.2598H26.4044V11.9998H23.8454V23.0339L17.4798 11.9998H14.1172V27.2598Z" fill="#006156"/>
<path fill-rule="evenodd" clip-rule="evenodd" d="M12 18.367C12 17.7777 12.4734 17.2999 13.0574 17.2999H27.1563C27.7403 17.2999 28.2137 17.7777 28.2137 18.367C28.2137 18.9564 27.7403 19.4342 27.1563 19.4342H13.0574C12.4734 19.4342 12 18.9564 12 18.367Z" fill="#006156"/>
<path fill-rule="evenodd" clip-rule="evenodd" d="M12 21.9246C12 21.3353 12.4734 20.8575 13.0574 20.8575H27.1563C27.7403 20.8575 28.2137 21.3353 28.2137 21.9246C28.2137 22.514 27.7403 22.9918 27.1563 22.9918H13.0574C12.4734 22.9918 12 22.514 12 21.9246Z" fill="#006156"/>
</svg>
